<svg width="19" height="24" viewBox="0 0 19 24" fill="none" xmlns="http://www.w3.org/2000/svg">
<path d="M1 3.4C1 2.55992 1 2.13988 1.16349 1.81901C1.3073 1.53677 1.53677 1.3073 1.81901 1.16349C2.13988 1 2.55992 1 3.4 1H10.4748C10.839 1 11.0211 1 11.1927 1.0409C11.3448 1.07716 11.4903 1.13698 11.6239 1.21819C11.7746 1.30978 11.904 1.43789 12.1629 1.69411L17.2882 6.76616C17.5508 7.02608 17.6821 7.15604 17.7761 7.30808C17.8594 7.44289 17.9208 7.59003 17.958 7.74405C18 7.91777 18 8.10253 18 8.47204V20.6C18 21.4401 18 21.8601 17.8365 22.181C17.6927 22.4632 17.4632 22.6927 17.181 22.8365C16.8601 23 16.4401 23 15.6 23H3.4C2.55992 23 2.13988 23 1.81901 22.8365C1.53677 22.6927 1.3073 22.4632 1.16349 22.181C1 21.8601 1 21.4401 1 20.6V3.4Z" stroke="white" stroke-width="2"/>
<line x1="5" y1="6.5" x2="11" y2="6.5" stroke="white"/>
<line x1="5" y1="10.5" x2="14" y2="10.5" stroke="white"/>
<line x1="5" y1="14.5" x2="14" y2="14.5" stroke="white"/>
<line x1="5" y1="18.5" x2="14" y2="18.5" stroke="white"/>
</svg>
