<svg width="18" height="18" viewBox="0 0 18 18" fill="none" xmlns="http://www.w3.org/2000/svg">
<path fill-rule="evenodd" clip-rule="evenodd" d="M9 18C13.9706 18 18 13.9706 18 9C18 4.02944 13.9706 0 9 0C4.02944 0 0 4.02944 0 9C0 13.9706 4.02944 18 9 18ZM9.07965 2.06765C9 2.14181 9 2.2612 9 2.5V8.71132C9 8.85221 9 8.92265 8.96651 8.98066C8.93301 9.03868 8.87201 9.0739 8.75 9.14434L3.37083 12.25C3.16403 12.3694 3.06063 12.4291 3.03624 12.5351C3.01184 12.6412 3.07559 12.7354 3.20307 12.9237C3.79578 13.7994 4.58052 14.5313 5.5 15.0622C6.56413 15.6766 7.77124 16 9 16C10.2288 16 11.4359 15.6766 12.5 15.0622C13.5641 14.4478 14.4478 13.5641 15.0622 12.5C15.6766 11.4359 16 10.2288 16 9C16 7.77124 15.6766 6.56413 15.0622 5.5C14.4478 4.43587 13.5641 3.5522 12.5 2.93782C11.5805 2.40696 10.5543 2.09331 9.49959 2.01785C9.27273 2.00162 9.1593 1.9935 9.07965 2.06765Z" fill="white"/>
</svg>
